<svg width="1200" height="800" viewBox="0 0 1200 800" fill="none" xmlns="http://www.w3.org/2000/svg">
  <rect width="1200" height="800" rx="48" fill="#0A1120"/>
  <rect x="48" y="48" width="1104" height="704" rx="34" fill="#101A2F" stroke="#2D4063"/>
  <rect x="84" y="92" width="1032" height="72" rx="24" fill="#14213B"/>
  <rect x="84" y="192" width="402" height="516" rx="28" fill="#14213B"/>
  <rect x="520" y="192" width="596" height="248" rx="28" fill="#14213B"/>
  <rect x="520" y="468" width="286" height="240" rx="28" fill="#14213B"/>
  <rect x="830" y="468" width="286" height="240" rx="28" fill="#14213B"/>
  <rect x="120" y="118" width="190" height="20" rx="10" fill="#FF87C5"/>
  <rect x="556" y="118" width="120" height="20" rx="10" fill="#354C71"/>
  <rect x="696" y="118" width="120" height="20" rx="10" fill="#354C71"/>
  <rect x="836" y="118" width="120" height="20" rx="10" fill="#354C71"/>
  <circle cx="998" cy="316" r="86" fill="#FF87C5" fill-opacity="0.12"/>
  <circle cx="998" cy="316" r="38" fill="#FF87C5"/>
  <path d="M558 272H888" stroke="#314868" stroke-width="12" stroke-linecap="round"/>
  <path d="M558 320H838" stroke="#314868" stroke-width="12" stroke-linecap="round"/>
  <path d="M558 584H770" stroke="#314868" stroke-width="12" stroke-linecap="round"/>
  <path d="M868 584H1080" stroke="#314868" stroke-width="12" stroke-linecap="round"/>
</svg>
