<svg width="1200" height="800" viewBox="0 0 1200 800" fill="none" xmlns="http://www.w3.org/2000/svg">
  <rect width="1200" height="800" rx="48" fill="#091321"/>
  <rect x="44" y="44" width="1112" height="712" rx="28" fill="#0F1C31" stroke="#284466"/>
  <rect x="84" y="92" width="200" height="580" rx="24" fill="#101E35"/>
  <rect x="324" y="92" width="782" height="200" rx="24" fill="#122540"/>
  <rect x="324" y="324" width="370" height="348" rx="24" fill="#122540"/>
  <rect x="736" y="324" width="370" height="348" rx="24" fill="#122540"/>
  <path d="M372 238C434 208 470 222 538 180C605 139 652 187 714 166C776 145 814 175 868 160C922 145 978 104 1044 128" stroke="#54E1C1" stroke-width="12" stroke-linecap="round"/>
  <path d="M372 488C432 452 488 520 550 468C610 418 656 520 718 502" stroke="#65A9FF" stroke-width="12" stroke-linecap="round"/>
  <path d="M784 492C834 458 886 456 938 422C990 388 1038 412 1062 396" stroke="#FF8C5C" stroke-width="12" stroke-linecap="round"/>
  <circle cx="922" cy="208" r="58" fill="#54E1C1" fill-opacity="0.18"/>
  <circle cx="922" cy="208" r="28" fill="#54E1C1"/>
</svg>
