<svg width="1200" height="800" viewBox="0 0 1200 800" fill="none" xmlns="http://www.w3.org/2000/svg">
  <rect width="1200" height="800" rx="48" fill="#0B1220"/>
  <rect x="52" y="60" width="1096" height="680" rx="32" fill="#111B30" stroke="#24344E"/>
  <rect x="90" y="104" width="320" height="592" rx="26" fill="#15233D"/>
  <rect x="446" y="104" width="664" height="164" rx="26" fill="#15233D"/>
  <rect x="446" y="298" width="316" height="398" rx="26" fill="#15233D"/>
  <rect x="794" y="298" width="316" height="398" rx="26" fill="#15233D"/>
  <rect x="126" y="148" width="248" height="18" rx="9" fill="#FFB864"/>
  <rect x="126" y="188" width="198" height="14" rx="7" fill="#6D809D"/>
  <rect x="126" y="226" width="228" height="14" rx="7" fill="#6D809D"/>
  <rect x="126" y="282" width="248" height="148" rx="18" fill="#1A2B49"/>
  <rect x="126" y="454" width="248" height="148" rx="18" fill="#1A2B49"/>
  <circle cx="1000" cy="186" r="46" fill="#FFB864" fill-opacity="0.18"/>
  <circle cx="1000" cy="186" r="20" fill="#FFB864"/>
  <path d="M482 190H940" stroke="#314868" stroke-width="12" stroke-linecap="round"/>
  <path d="M482 350H726" stroke="#314868" stroke-width="12" stroke-linecap="round"/>
  <path d="M830 350H1074" stroke="#314868" stroke-width="12" stroke-linecap="round"/>
</svg>
