<svg xmlns="http://www.w3.org/2000/svg" width="128" height="128" viewBox="0 0 128 128" fill="none">
  <rect width="128" height="128" rx="32" fill="#07111F"/>
  <rect x="14" y="14" width="100" height="100" rx="24" fill="#0E1E34" stroke="#1E375C"/>
  <path d="M38 28H70C85.464 28 96 37.264 96 50.632C96 59.768 90.944 66.104 82.176 69.272C92.464 71.504 98 78.544 98 88.2C98 102.528 86.304 112 69.504 112H38V28Z" fill="url(#paint0_linear_121_8)"/>
  <path d="M52 42V63.2H68.928C77.248 63.2 82.336 59.392 82.336 52.256C82.336 45.584 77.664 42 69.024 42H52Z" fill="#07111F"/>
  <path d="M52 76V98H69.28C78.688 98 84 94.064 84 86.64C84 79.456 78.656 76 68.8 76H52Z" fill="#07111F"/>
  <circle cx="94" cy="34" r="8" fill="#54E1C1"/>
  <defs>
    <linearGradient id="paint0_linear_121_8" x1="38" y1="28" x2="101.658" y2="99.021" gradientUnits="userSpaceOnUse">
      <stop stop-color="#54E1C1"/>
      <stop offset="1" stop-color="#18A7FF"/>
    </linearGradient>
  </defs>
</svg>
